<?xml version="1.0" encoding="UTF-8"?>
<!DOCTYPE svg PUBLIC "-//W3C//DTD SVG 1.1//EN" "http://www.w3.org/Graphics/SVG/1.1/DTD/svg11.dtd">
<svg xmlns="http://www.w3.org/2000/svg" version="1.1" width="350px" height="350px" style="shape-rendering:geometricPrecision; text-rendering:geometricPrecision; image-rendering:optimizeQuality; fill-rule:evenodd; clip-rule:evenodd" xmlns:xlink="http://www.w3.org/1999/xlink">
<g><path style="opacity:1" fill="#fdfefe" d="M -0.5,-0.5 C 116.167,-0.5 232.833,-0.5 349.5,-0.5C 349.5,116.167 349.5,232.833 349.5,349.5C 232.833,349.5 116.167,349.5 -0.5,349.5C -0.5,232.833 -0.5,116.167 -0.5,-0.5 Z"/></g>
<g><path style="opacity:1" fill="#109ffe" d="M 157.5,56.5 C 172.438,55.6097 186.771,58.1097 200.5,64C 204.675,65.5843 208.341,67.9177 211.5,71C 203.167,71.3333 194.833,71.6667 186.5,72C 185.167,72.6667 185.167,73.3333 186.5,74C 192.386,75.4871 198.386,76.4871 204.5,77C 206.754,78.0539 207.087,79.5539 205.5,81.5C 206.665,82.5836 207.998,83.4169 209.5,84C 215.5,84.3333 221.5,84.6667 227.5,85C 240.652,101.402 246.818,120.235 246,141.5C 249,144.5 252,147.5 255,150.5C 255.667,151.167 255.667,151.833 255,152.5C 242.895,142.466 228.895,137.8 213,138.5C 207.12,138.509 201.287,139.009 195.5,140C 180.471,143.935 165.471,147.602 150.5,151C 158.146,143.789 159.646,135.622 155,126.5C 154.501,123.978 154.668,121.478 155.5,119C 153.817,115.3 152.983,111.467 153,107.5C 153.804,106.196 154.971,105.529 156.5,105.5C 159.107,106.137 161.44,107.304 163.5,109C 169.286,115.792 175.952,121.459 183.5,126C 190.642,128.609 197.975,129.942 205.5,130C 200.198,127.349 194.864,124.682 189.5,122C 186.821,120.211 186.987,119.045 190,118.5C 201.722,123.716 213.555,128.549 225.5,133C 228.43,134.318 231.43,134.985 234.5,135C 218.377,125.545 203.377,114.545 189.5,102C 187.167,101.333 184.833,101.333 182.5,102C 178.405,104.259 174.738,107.093 171.5,110.5C 168.529,105.697 165.362,101.03 162,96.5C 159.56,94.3779 156.893,92.7112 154,91.5C 148.172,93.1633 143.005,95.9967 138.5,100C 133.833,104 129.167,108 124.5,112C 117.833,119.333 111.167,126.667 104.5,134C 100.532,137.817 95.8649,140.317 90.5,141.5C 88.9252,125.943 91.7585,111.277 99,97.5C 101.507,95.8447 104.341,95.0114 107.5,95C 109.792,93.7101 111.792,92.0435 113.5,90C 117.498,89.832 120.831,88.332 123.5,85.5C 118.833,84.8333 114.167,84.1667 109.5,83.5C 122.308,68.7641 138.308,59.7641 157.5,56.5 Z"/></g>
<g><path style="opacity:1" fill="#02034c" d="M 161.5,186.5 C 161.5,189.5 161.5,192.5 161.5,195.5C 159.5,195.5 157.5,195.5 155.5,195.5C 155.795,193.265 155.461,191.265 154.5,189.5C 154.125,179.168 153.792,168.835 153.5,158.5C 155.833,158.5 158.167,158.5 160.5,158.5C 160.483,167.849 160.817,177.182 161.5,186.5 Z"/></g>
<g><path style="opacity:1" fill="#0b0a50" d="M 180.5,158.5 C 192.171,158.333 203.838,158.5 215.5,159C 216,159.5 216.5,160 217,160.5C 217.667,166.833 217.667,173.167 217,179.5C 216.5,180 216,180.5 215.5,181C 203.833,181.667 192.167,181.667 180.5,181C 179.183,173.5 179.183,166 180.5,158.5 Z"/></g>
<g><path style="opacity:1" fill="#05074e" d="M 238.5,165.5 C 237.512,170.64 237.179,175.974 237.5,181.5C 234.5,181.5 231.5,181.5 228.5,181.5C 228.5,176.167 228.5,170.833 228.5,165.5C 226.5,165.5 224.5,165.5 222.5,165.5C 222.5,164.167 222.5,162.833 222.5,161.5C 224.5,161.5 226.5,161.5 228.5,161.5C 228.5,160.5 228.5,159.5 228.5,158.5C 231.833,158.5 235.167,158.5 238.5,158.5C 238.5,159.5 238.5,160.5 238.5,161.5C 240.5,161.5 242.5,161.5 244.5,161.5C 244.5,162.833 244.5,164.167 244.5,165.5C 242.5,165.5 240.5,165.5 238.5,165.5 Z"/></g>
<g><path style="opacity:1" fill="#0c0b51" d="M 246.5,158.5 C 252.842,158.334 259.175,158.5 265.5,159C 266,159.5 266.5,160 267,160.5C 267.667,166.833 267.667,173.167 267,179.5C 266.5,180 266,180.5 265.5,181C 258.918,181.81 252.418,181.643 246,180.5C 245.204,173.087 245.37,165.754 246.5,158.5 Z"/></g>
<g><path style="opacity:1" fill="#0f0c52" d="M 130.5,161.5 C 133.167,161.5 135.833,161.5 138.5,161.5C 137.135,174.458 136.469,187.458 136.5,200.5C 133.833,200.5 131.167,200.5 128.5,200.5C 129.499,187.518 130.165,174.518 130.5,161.5 Z"/></g>
<g><path style="opacity:1" fill="#01014c" d="M 140.5,161.5 C 144.167,161.5 147.833,161.5 151.5,161.5C 151.5,174.167 151.5,186.833 151.5,199.5C 155.833,199.5 160.167,199.5 164.5,199.5C 164.5,200.833 164.5,202.167 164.5,203.5C 156.58,203.815 148.747,203.482 141,202.5C 140.5,188.837 140.333,175.171 140.5,161.5 Z"/></g>
<g><path style="opacity:1" fill="#0a0950" d="M 163.5,161.5 C 166.167,161.5 168.833,161.5 171.5,161.5C 171.812,174.52 172.479,187.52 173.5,200.5C 170.833,200.5 168.167,200.5 165.5,200.5C 164.745,187.505 164.078,174.505 163.5,161.5 Z"/></g>
<g><path style="opacity:1" fill="#ececf1" d="M 254.5,162.5 C 255.978,162.238 257.311,162.571 258.5,163.5C 257.833,163.833 257.167,164.167 256.5,164.5C 255.287,164.253 254.62,163.586 254.5,162.5 Z"/></g>
<g><path style="opacity:1" fill="#0d0b52" d="M 222.5,166.5 C 224.167,166.5 225.833,166.5 227.5,166.5C 227.5,171.167 227.5,175.833 227.5,180.5C 225.833,180.5 224.167,180.5 222.5,180.5C 222.5,175.833 222.5,171.167 222.5,166.5 Z"/></g>
<g><path style="opacity:1" fill="#0d0b51" d="M 239.5,166.5 C 240.833,166.5 242.167,166.5 243.5,166.5C 244.127,171.141 244.46,175.807 244.5,180.5C 242.833,180.5 241.167,180.5 239.5,180.5C 239.5,177.167 239.5,173.833 239.5,170.5C 239.5,169.167 239.5,167.833 239.5,166.5 Z"/></g>
<g><path style="opacity:1" fill="#eaeaf0" d="M 254.5,168.5 C 255.978,168.238 257.311,168.571 258.5,169.5C 257.833,169.833 257.167,170.167 256.5,170.5C 255.287,170.253 254.62,169.586 254.5,168.5 Z"/></g>
<g><path style="opacity:1" fill="#cbcbd9" d="M 190.5,162.5 C 190.5,167.167 190.5,171.833 190.5,176.5C 195.5,176.5 200.5,176.5 205.5,176.5C 205.5,171.833 205.5,167.167 205.5,162.5C 206.487,167.305 206.821,172.305 206.5,177.5C 200.833,177.5 195.167,177.5 189.5,177.5C 189.179,172.305 189.513,167.305 190.5,162.5 Z"/></g>
<g><path style="opacity:1" fill="#fefefe" d="M 190.5,162.5 C 195.5,162.5 200.5,162.5 205.5,162.5C 205.5,167.167 205.5,171.833 205.5,176.5C 200.5,176.5 195.5,176.5 190.5,176.5C 190.5,171.833 190.5,167.167 190.5,162.5 Z"/></g>
<g><path style="opacity:1" fill="#dddde7" d="M 254.5,174.5 C 255.833,174.5 257.167,174.5 258.5,174.5C 258.5,175.5 258.5,176.5 258.5,177.5C 257.167,177.5 255.833,177.5 254.5,177.5C 254.5,176.5 254.5,175.5 254.5,174.5 Z"/></g>
<g><path style="opacity:1" fill="#75749d" d="M 238.5,165.5 C 238.5,166.167 238.833,166.5 239.5,166.5C 239.5,167.833 239.5,169.167 239.5,170.5C 238.833,174.167 238.167,177.833 237.5,181.5C 237.179,175.974 237.512,170.64 238.5,165.5 Z"/></g>
<g><path style="opacity:1" fill="#191458" d="M 79.5,179.5 C 93.8333,179.5 108.167,179.5 122.5,179.5C 122.5,180.833 122.5,182.167 122.5,183.5C 108.167,183.5 93.8333,183.5 79.5,183.5C 79.5,182.167 79.5,180.833 79.5,179.5 Z"/></g>
<g><path style="opacity:1" fill="#06064e" d="M 182.5,183.5 C 186.167,183.5 189.833,183.5 193.5,183.5C 191.833,190.167 190.167,196.833 188.5,203.5C 184.774,203.823 181.107,203.489 177.5,202.5C 179.639,196.276 181.306,189.943 182.5,183.5 Z"/></g>
<g><path style="opacity:1" fill="#06064e" d="M 202.5,183.5 C 206.167,183.5 209.833,183.5 213.5,183.5C 214.412,188.575 215.745,193.575 217.5,198.5C 213.928,199.706 210.262,200.373 206.5,200.5C 205.325,194.799 203.991,189.132 202.5,183.5 Z"/></g>
<g><path style="opacity:1" fill="#05064e" d="M 224.5,183.5 C 227.167,183.5 229.833,183.5 232.5,183.5C 231.836,188.473 231.503,193.473 231.5,198.5C 228.833,198.5 226.167,198.5 223.5,198.5C 223.613,193.482 223.947,188.482 224.5,183.5 Z"/></g>
<g><path style="opacity:1" fill="#03054d" d="M 233.5,183.5 C 237.5,183.5 241.5,183.5 245.5,183.5C 245.5,188.167 245.5,192.833 245.5,197.5C 241.5,197.5 237.5,197.5 233.5,197.5C 233.5,192.833 233.5,188.167 233.5,183.5 Z"/></g>
<g><path style="opacity:1" fill="#04054e" d="M 247.5,183.5 C 250.167,183.5 252.833,183.5 255.5,183.5C 255.5,188.167 255.5,192.833 255.5,197.5C 252.833,197.5 250.167,197.5 247.5,197.5C 247.5,192.833 247.5,188.167 247.5,183.5 Z"/></g>
<g><path style="opacity:1" fill="#03044d" d="M 257.5,183.5 C 260.167,183.5 262.833,183.5 265.5,183.5C 266.177,188.874 266.177,194.208 265.5,199.5C 263.253,198.626 260.92,198.292 258.5,198.5C 258.387,193.482 258.053,188.482 257.5,183.5 Z"/></g>
<g><path style="opacity:1" fill="#423f78" d="M 161.5,186.5 C 162.479,189.625 162.813,192.958 162.5,196.5C 159.833,196.5 157.167,196.5 154.5,196.5C 154.5,194.167 154.5,191.833 154.5,189.5C 155.461,191.265 155.795,193.265 155.5,195.5C 157.5,195.5 159.5,195.5 161.5,195.5C 161.5,192.5 161.5,189.5 161.5,186.5 Z"/></g>
<g><path style="opacity:1" fill="#0c0a51" d="M 228.5,202.5 C 215.528,206.713 202.861,211.713 190.5,217.5C 178.511,218.41 166.511,218.576 154.5,218C 141.601,215.256 129.268,210.923 117.5,205C 110.607,202.21 103.607,201.877 96.5,204C 90.5,206.333 84.5,208.667 78.5,211C 75.5,211.667 72.5,211.667 69.5,211C 68.09,210.632 67.09,209.799 66.5,208.5C 69.8272,207.005 72.3272,204.671 74,201.5C 75.9579,202.051 77.9579,202.385 80,202.5C 84.9219,201.749 89.7552,200.583 94.5,199C 98.8333,198.333 103.167,198.333 107.5,199C 116.72,201.74 125.72,205.073 134.5,209C 141.018,210.939 147.684,211.772 154.5,211.5C 179.162,208.501 203.829,205.501 228.5,202.5 Z"/></g>
<g><path style="opacity:1" fill="#21a8fd" d="M 190.5,217.5 C 202.861,211.713 215.528,206.713 228.5,202.5C 248.885,199.635 268.552,202.135 287.5,210C 280.518,209.669 273.518,209.669 266.5,210C 261.314,212.424 256.647,215.591 252.5,219.5C 243.675,216.025 234.509,214.358 225,214.5C 213.468,215.203 201.968,216.203 190.5,217.5 Z"/></g>
<g><path style="opacity:1" fill="#1da9fe" d="M 79.5,223.5 C 84.5,223.5 89.5,223.5 94.5,223.5C 94.5,228.5 94.5,233.5 94.5,238.5C 89.5,238.5 84.5,238.5 79.5,238.5C 79.5,233.5 79.5,228.5 79.5,223.5 Z"/></g>
<g><path style="opacity:1" fill="#1ca9fe" d="M 96.5,223.5 C 101.5,223.5 106.5,223.5 111.5,223.5C 111.5,228.5 111.5,233.5 111.5,238.5C 106.5,238.5 101.5,238.5 96.5,238.5C 96.5,233.5 96.5,228.5 96.5,223.5 Z"/></g>
<g><path style="opacity:1" fill="#21aafe" d="M 113.5,223.5 C 118.5,223.5 123.5,223.5 128.5,223.5C 128.5,228.5 128.5,233.5 128.5,238.5C 123.5,238.5 118.5,238.5 113.5,238.5C 113.5,233.5 113.5,228.5 113.5,223.5 Z"/></g>
<g><path style="opacity:1" fill="#1ca9fe" d="M 130.5,223.5 C 135.5,223.5 140.5,223.5 145.5,223.5C 145.5,228.5 145.5,233.5 145.5,238.5C 140.5,238.5 135.5,238.5 130.5,238.5C 130.5,233.5 130.5,228.5 130.5,223.5 Z"/></g>
<g><path style="opacity:1" fill="#f2f9fe" d="M 80.5,224.5 C 82.7157,225.203 84.549,226.536 86,228.5C 86.956,227.421 87.7894,226.255 88.5,225C 89.635,224.251 90.635,224.417 91.5,225.5C 89.8547,229.325 89.188,233.325 89.5,237.5C 88.1667,237.5 86.8333,237.5 85.5,237.5C 84.3,232.974 82.6333,228.64 80.5,224.5 Z"/></g>
<g><path style="opacity:1" fill="#f1f9fe" d="M 97.5,224.5 C 100.325,224.081 102.491,225.081 104,227.5C 104.949,224.8 106.783,223.967 109.5,225C 108.5,226.667 107.5,228.333 106.5,230C 109.402,231.94 110.402,234.44 109.5,237.5C 107.245,234.005 104.912,233.838 102.5,237C 101.365,237.749 100.365,237.583 99.5,236.5C 100.447,234.941 101.113,233.274 101.5,231.5C 100.149,229.156 98.8157,226.822 97.5,224.5 Z"/></g>
<g><path style="opacity:1" fill="#f6fbfe" d="M 116.5,224.5 C 119.833,224.5 123.167,224.5 126.5,224.5C 125.992,227.852 124.658,230.852 122.5,233.5C 124.045,234.452 125.712,234.785 127.5,234.5C 127.5,235.5 127.5,236.5 127.5,237.5C 124.167,237.5 120.833,237.5 117.5,237.5C 117.126,234.028 118.126,231.028 120.5,228.5C 119.311,227.571 117.978,227.238 116.5,227.5C 116.5,226.5 116.5,225.5 116.5,224.5 Z"/></g>
<g><path style="opacity:1" fill="#f1f9fe" d="M 131.5,224.5 C 134.325,224.081 136.491,225.081 138,227.5C 138.949,224.8 140.783,223.967 143.5,225C 142.5,226.667 141.5,228.333 140.5,230C 143.402,231.94 144.402,234.44 143.5,237.5C 141.245,234.005 138.912,233.838 136.5,237C 135.365,237.749 134.365,237.583 133.5,236.5C 134.447,234.941 135.113,233.274 135.5,231.5C 134.149,229.156 132.816,226.822 131.5,224.5 Z"/></g>
<g><path style="opacity:1" fill="#211f60" d="M 154.5,231.5 C 153.386,229.647 154.052,229.147 156.5,230C 155.956,230.717 155.289,231.217 154.5,231.5 Z"/></g>
<g><path style="opacity:1" fill="#252060" d="M 249.5,229.5 C 251.5,229.5 253.5,229.5 255.5,229.5C 255.649,230.552 255.483,231.552 255,232.5C 250.344,229.471 248.677,230.804 250,236.5C 251.011,237.337 252.178,237.67 253.5,237.5C 253.281,236.325 253.614,235.325 254.5,234.5C 255.429,235.689 255.762,237.022 255.5,238.5C 247.747,239.101 245.747,236.101 249.5,229.5 Z"/></g>
<g><path style="opacity:1" fill="#76739d" d="M 185.5,238.5 C 185.608,236.486 184.942,234.82 183.5,233.5C 184.161,232.282 184.828,230.949 185.5,229.5C 186.803,232.645 186.803,235.645 185.5,238.5 Z"/></g>
<g><path style="opacity:1" fill="#76739d" d="M 244.5,238.5 C 244.608,236.486 243.942,234.82 242.5,233.5C 243.161,232.282 243.828,230.949 244.5,229.5C 245.803,232.645 245.803,235.645 244.5,238.5 Z"/></g>
<g><path style="opacity:1" fill="#171458" d="M 154.5,231.5 C 153.395,233.713 153.395,235.88 154.5,238C 151.145,239.15 150.145,238.317 151.5,235.5C 151.152,233.303 150.152,231.47 148.5,230C 149.833,229.333 151.167,229.333 152.5,230C 151.766,232.093 152.433,232.593 154.5,231.5 Z"/></g>
<g><path style="opacity:1" fill="#241e60" d="M 163.5,230.5 C 164.952,229.287 166.286,229.62 167.5,231.5C 168.532,229.96 169.865,229.46 171.5,230C 167.524,232.617 167.524,235.284 171.5,238C 170.207,238.49 168.873,238.657 167.5,238.5C 167.649,237.448 167.483,236.448 167,235.5C 166.094,237.612 164.594,238.445 162.5,238C 165.966,235.806 166.3,233.306 163.5,230.5 Z"/></g>
<g><path style="opacity:1" fill="#241e60" d="M 212.5,230.5 C 213.952,229.287 215.286,229.62 216.5,231.5C 217.532,229.96 218.865,229.46 220.5,230C 216.524,232.617 216.524,235.284 220.5,238C 219.207,238.49 217.873,238.657 216.5,238.5C 216.649,237.448 216.483,236.448 216,235.5C 215.094,237.612 213.594,238.445 211.5,238C 214.966,235.806 215.3,233.306 212.5,230.5 Z"/></g>
<g><path style="opacity:1" fill="#252061" d="M 188.5,229.5 C 190.604,229.201 192.604,229.534 194.5,230.5C 193.041,232.583 191.708,234.75 190.5,237C 192.085,237.085 193.418,237.251 194.5,237.5C 192.235,238.647 189.902,238.814 187.5,238C 189.032,235.966 190.365,233.799 191.5,231.5C 190.726,230.289 189.893,230.289 189,231.5C 188.536,230.906 188.369,230.239 188.5,229.5 Z"/></g>
<g><path style="opacity:1" fill="#262061" d="M 183.5,233.5 C 184.942,234.82 185.608,236.486 185.5,238.5C 183.901,236.396 182.068,234.396 180,232.5C 179.257,234.441 179.424,236.274 180.5,238C 179.5,238.667 178.5,238.667 177.5,238C 178.125,235.2 178.792,232.366 179.5,229.5C 181.188,230.521 182.521,231.855 183.5,233.5 Z"/></g>
<g><path style="opacity:1" fill="#1a185b" d="M 157.5,230.5 C 158.601,229.402 159.934,229.235 161.5,230C 160.167,232.667 160.167,235.333 161.5,238C 160.167,238.667 158.833,238.667 157.5,238C 158.814,235.395 158.814,232.895 157.5,230.5 Z"/></g>
<g><path style="opacity:1" fill="#1a185b" d="M 172.5,230.5 C 173.601,229.402 174.934,229.235 176.5,230C 175.167,232.667 175.167,235.333 176.5,238C 175.167,238.667 173.833,238.667 172.5,238C 173.814,235.395 173.814,232.895 172.5,230.5 Z"/></g>
<g><path style="opacity:1" fill="#231f60" d="M 195.5,230.5 C 196.601,229.402 197.934,229.235 199.5,230C 198.167,232.667 198.167,235.333 199.5,238C 198.167,238.667 196.833,238.667 195.5,238C 196.814,235.395 196.814,232.895 195.5,230.5 Z"/></g>
<g><path style="opacity:1" fill="#18165a" d="M 201.5,230.5 C 202.601,229.402 203.934,229.235 205.5,230C 204.167,232.667 204.167,235.333 205.5,238C 204.167,238.667 202.833,238.667 201.5,238C 202.814,235.395 202.814,232.895 201.5,230.5 Z"/></g>
<g><path style="opacity:1" fill="#1a185b" d="M 206.5,230.5 C 207.601,229.402 208.934,229.235 210.5,230C 209.167,232.667 209.167,235.333 210.5,238C 209.167,238.667 207.833,238.667 206.5,238C 207.814,235.395 207.814,232.895 206.5,230.5 Z"/></g>
<g><path style="opacity:1" fill="#1a185b" d="M 221.5,230.5 C 222.601,229.402 223.934,229.235 225.5,230C 224.167,232.667 224.167,235.333 225.5,238C 224.167,238.667 222.833,238.667 221.5,238C 222.814,235.395 222.814,232.895 221.5,230.5 Z"/></g>
<g><path style="opacity:1" fill="#2d2766" d="M 242.5,233.5 C 243.942,234.82 244.608,236.486 244.5,238.5C 242.901,236.396 241.068,234.396 239,232.5C 238.257,234.441 238.424,236.274 239.5,238C 236.833,238.667 234.167,238.667 231.5,238C 232.609,236.187 231.942,235.354 229.5,235.5C 229.5,236.5 229.5,237.5 229.5,238.5C 228.448,238.649 227.448,238.483 226.5,238C 227.714,236.021 229.381,234.521 231.5,233.5C 230.833,233.167 230.167,232.833 229.5,232.5C 229.919,231.328 230.585,230.328 231.5,229.5C 233.287,231.858 234.287,234.525 234.5,237.5C 235.5,237.5 236.5,237.5 237.5,237.5C 237.187,234.753 237.52,232.086 238.5,229.5C 240.188,230.521 241.521,231.855 242.5,233.5 Z"/></g>
</svg>
