<?xml version="1.0" encoding="UTF-8"?>
<!DOCTYPE svg PUBLIC "-//W3C//DTD SVG 1.1//EN" "http://www.w3.org/Graphics/SVG/1.1/DTD/svg11.dtd">
<svg xmlns="http://www.w3.org/2000/svg" version="1.1" width="500px" height="500px" style="shape-rendering:geometricPrecision; text-rendering:geometricPrecision; image-rendering:optimizeQuality; fill-rule:evenodd; clip-rule:evenodd" xmlns:xlink="http://www.w3.org/1999/xlink">
<g><path style="opacity:1" fill="#fefefe" d="M -0.5,-0.5 C 166.167,-0.5 332.833,-0.5 499.5,-0.5C 499.5,166.167 499.5,332.833 499.5,499.5C 332.833,499.5 166.167,499.5 -0.5,499.5C -0.5,332.833 -0.5,166.167 -0.5,-0.5 Z"/></g>
<g><path style="opacity:1" fill="#e7131a" d="M 272.5,212.5 C 263.724,216.319 254.557,218.652 245,219.5C 236.992,219.165 229.492,216.998 222.5,213C 209.092,211.287 198.258,215.787 190,226.5C 187.083,230.666 184.416,234.999 182,239.5C 185.299,221.028 196.132,209.361 214.5,204.5C 215.5,204.667 216.5,204.833 217.5,205C 220.5,207.333 223.5,209.667 226.5,212C 230.85,212.645 233.017,210.812 233,206.5C 229.924,205.712 226.758,205.212 223.5,205C 220.971,199.28 222.805,196.447 229,196.5C 234.147,197.844 239.314,198.678 244.5,199C 245.554,197.612 245.72,196.112 245,194.5C 241.343,191.71 239.843,188.21 240.5,184C 242.473,183.505 244.473,183.338 246.5,183.5C 246.703,181.61 246.037,180.11 244.5,179C 240.106,176.626 235.44,175.959 230.5,177C 229.167,178.333 229.167,179.667 230.5,181C 228.788,183.692 226.788,184.026 224.5,182C 215.714,180.703 207.714,182.703 200.5,188C 173.109,207.458 166.275,232.625 180,263.5C 186.962,274.793 196.462,283.293 208.5,289C 216.768,291.98 225.102,294.48 233.5,296.5C 199.582,298.633 176.415,283.966 164,252.5C 156.796,219.744 167.296,194.577 195.5,177C 193.576,176.821 191.909,176.654 190.5,176.5C 193.021,173.146 196.021,170.312 199.5,168C 211.1,168.83 222.767,169.497 234.5,170C 252.799,172.887 267.299,181.72 278,196.5C 279.284,202.926 277.451,208.259 272.5,212.5 Z"/></g>
<g><path style="opacity:1" fill="#e92b2c" d="M 272.5,212.5 C 276.382,211.789 278.882,209.456 280,205.5C 281.074,200.891 280.24,196.724 277.5,193C 280.117,193.26 281.95,194.76 283,197.5C 283.946,202.88 282.78,207.713 279.5,212C 277.059,213.392 274.726,213.559 272.5,212.5 Z"/></g>
<g><path style="opacity:1" fill="#feebeb" d="M 249.5,210.5 C 253.588,210.218 254.088,210.885 251,212.5C 249.97,212.164 249.47,211.497 249.5,210.5 Z"/></g>
<g><path style="opacity:1" fill="#111111" d="M 286.5,236.5 C 290.83,236.915 294.997,237.915 299,239.5C 299.741,242.112 298.741,243.778 296,244.5C 295.506,246.134 295.34,247.801 295.5,249.5C 298.647,249.737 301.647,250.57 304.5,252C 306.032,252.7 307.032,253.866 307.5,255.5C 303.878,256.325 300.211,256.825 296.5,257C 294.884,257.615 293.551,258.615 292.5,260C 300.84,266.492 309.84,271.992 319.5,276.5C 320.583,277.365 320.749,278.365 320,279.5C 317.263,280.61 314.429,280.777 311.5,280C 305.271,274.767 298.771,269.934 292,265.5C 287.879,268.618 284.046,272.118 280.5,276C 276.169,277.684 271.836,279.017 267.5,280C 275.179,276.656 281.346,271.489 286,264.5C 286.749,263.365 286.583,262.365 285.5,261.5C 282.229,265.089 278.229,266.256 273.5,265C 272.643,264.311 271.977,263.478 271.5,262.5C 279.617,257.886 285.784,251.552 290,243.5C 287.651,244.84 285.317,246.174 283,247.5C 281.049,247.112 279.549,246.112 278.5,244.5C 281.158,243.171 283.824,241.838 286.5,240.5C 287.292,239.3 287.292,237.967 286.5,236.5 Z"/></g>
<g><path style="opacity:1" fill="#0d0d0d" d="M 243.5,236.5 C 244.873,236.343 246.207,236.51 247.5,237C 248.786,239.022 249.786,241.189 250.5,243.5C 251.729,244.281 253.062,244.781 254.5,245C 255.022,245.561 255.355,246.228 255.5,247C 253.977,248.854 252.144,250.354 250,251.5C 249.667,260.5 249.333,269.5 249,278.5C 248.311,279.357 247.478,280.023 246.5,280.5C 243.618,279.228 240.785,277.895 238,276.5C 237.585,274.709 236.585,273.376 235,272.5C 234.502,269.518 234.335,266.518 234.5,263.5C 239.453,264.235 241.453,266.902 240.5,271.5C 240.833,272.5 241.5,273.167 242.5,273.5C 243.495,267.872 243.829,262.206 243.5,256.5C 231.038,258.141 226.205,265.141 229,277.5C 228.439,278.022 227.772,278.355 227,278.5C 224.883,276.968 223.216,274.968 222,272.5C 215.603,279.877 213.937,278.877 217,269.5C 221.321,265.691 224.154,261.025 225.5,255.5C 222.561,255.918 220.228,257.418 218.5,260C 215.947,260.851 213.614,260.518 211.5,259C 216.242,256.88 220.742,254.38 225,251.5C 225.667,248.5 225.667,245.5 225,242.5C 224.25,241.874 223.416,241.374 222.5,241C 229.721,239.724 232.054,242.558 229.5,249.5C 231.467,249.261 233.301,249.594 235,250.5C 235.333,252.934 234.166,253.934 231.5,253.5C 231.622,257.838 231.955,258.172 232.5,254.5C 236.354,254.159 239.854,252.826 243,250.5C 243.807,246.814 243.307,243.314 241.5,240C 241.978,238.697 242.645,237.531 243.5,236.5 Z"/></g>
<g><path style="opacity:1" fill="#d3d3d3" d="M 288.5,251.5 C 289.791,252.542 289.791,253.708 288.5,255C 286.956,256.187 285.289,256.52 283.5,256C 285.063,254.264 286.73,252.764 288.5,251.5 Z"/></g>
</svg>
